<svg xmlns="http://www.w3.org/2000/svg" width="141.391" height="3634.429" viewBox="0 0 141.391 3634.429">
  <g>
    <path d="M74.3,3498.048c.395-.4,39.083-39.988,0-79.071-31.96-31.96-1.313-63.605,0-64.929A68.265,68.265,0,0,0,89,3329.593c4.552-13.655,5.7-34.214-14.707-54.616-31.96-31.96-1.313-63.605,0-64.929A68.265,68.265,0,0,0,89,3185.593c4.552-13.655,5.7-34.214-14.707-54.616-31.96-31.96-1.313-63.605,0-64.929A68.265,68.265,0,0,0,89,3041.593c4.552-13.655,5.7-34.214-14.707-54.616-31.96-31.96-1.313-63.605,0-64.929.395-.4,39.083-39.988,0-79.071-31.96-31.96-1.313-63.605,0-64.929.395-.4,39.083-39.988,0-79.071-31.96-31.96-1.313-63.605,0-64.929A68.265,68.265,0,0,0,89,2609.593c4.552-13.655,5.7-34.214-14.707-54.616-31.96-31.96-1.313-63.605,0-64.929A68.265,68.265,0,0,0,89,2465.593c4.552-13.655,5.7-34.214-14.707-54.616-31.96-31.96-1.313-63.606,0-64.929A68.277,68.277,0,0,0,89,2321.593c4.552-13.655,5.7-34.214-14.707-54.617-31.96-31.959-1.313-63.605,0-64.928A68.277,68.277,0,0,0,89,2177.593c4.552-13.655,5.7-34.214-14.707-54.617-31.96-31.959-1.313-63.605,0-64.928.395-.4,39.083-39.988,0-79.072-31.96-31.959-1.313-63.605,0-64.928.395-.4,39.083-39.988,0-79.072-31.96-31.959-1.313-63.605,0-64.928A68.277,68.277,0,0,0,89,1745.593c4.552-13.655,5.7-34.214-14.707-54.617-31.96-31.959-1.313-63.605,0-64.928A68.277,68.277,0,0,0,89,1601.593c4.552-13.655,5.7-34.214-14.707-54.617-31.96-31.959-1.313-63.605,0-64.928A68.277,68.277,0,0,0,89,1457.593c4.552-13.655,5.7-34.214-14.707-54.617-31.96-31.959-1.313-63.605,0-64.928.395-.4,39.083-39.988,0-79.072-31.96-31.959-1.313-63.605,0-64.928H73.6c9.136-14,20.78-42.105-7.073-69.958-31.959-31.96-1.313-63.605,0-64.929.395-.395,39.084-39.988,0-79.071-31.959-31.96-1.313-63.605,0-64.929a68.262,68.262,0,0,0,14.708-24.454c4.551-13.655,5.7-34.215-14.708-54.617-31.959-31.96-1.313-63.605,0-64.929a68.262,68.262,0,0,0,14.708-24.454c4.551-13.655,5.7-34.215-14.708-54.617-31.959-31.96-1.313-63.605,0-64.929a68.262,68.262,0,0,0,14.708-24.454c4.551-13.655,5.7-34.215-14.708-54.617-31.959-31.96-1.313-63.605,0-64.929.395-.395,39.084-39.988,0-79.071-31.959-31.96-1.313-63.6,0-64.929.395-.395,39.084-39.988,0-79.071-31.959-31.96-1.313-63.6,0-64.929a68.262,68.262,0,0,0,14.708-24.454c4.551-13.655,5.7-34.215-14.708-54.617-31.959-31.96-1.313-63.6,0-64.929A68.262,68.262,0,0,0,81.238,26.707,49.677,49.677,0,0,0,82.849,0H30.492c3.2,11.813,2.12,26.894-13.034,42.048C-2.944,62.45-1.8,83.01,2.751,96.665a68.283,68.283,0,0,0,14.707,24.454c1.314,1.324,31.96,32.969,0,64.929C-2.944,206.45-1.8,227.01,2.751,240.665a68.283,68.283,0,0,0,14.707,24.454c1.314,1.324,31.96,32.969,0,64.929-39.083,39.083-.394,78.676,0,79.071,1.314,1.324,31.96,32.969,0,64.929-39.083,39.083-.394,78.676,0,79.071,1.314,1.324,31.96,32.969,0,64.929C-2.944,638.45-1.8,659.01,2.751,672.665a68.283,68.283,0,0,0,14.707,24.454c1.314,1.324,31.96,32.969,0,64.929C-2.944,782.45-1.8,803.01,2.751,816.665a68.283,68.283,0,0,0,14.707,24.454c1.314,1.324,31.96,32.969,0,64.929C-2.944,926.45-1.8,947.01,2.751,960.665a68.283,68.283,0,0,0,14.707,24.454c1.314,1.324,31.96,32.969,0,64.929-39.083,39.083-.394,78.676,0,79.071,1.314,1.324,31.96,32.969,0,64.929-25.528,35.894,7.4,69.593,7.765,69.958,1.313,1.323,31.96,32.969,0,64.928-39.083,39.084-.395,78.676,0,79.072,1.313,1.323,31.96,32.969,0,64.928-20.4,20.4-19.259,40.962-14.707,54.617a68.261,68.261,0,0,0,14.707,24.455c1.313,1.323,31.96,32.969,0,64.928-20.4,20.4-19.259,40.962-14.707,54.617a68.261,68.261,0,0,0,14.707,24.455c1.313,1.323,31.96,32.969,0,64.928-20.4,20.4-19.259,40.962-14.707,54.617a68.261,68.261,0,0,0,14.707,24.455c1.313,1.323,31.96,32.969,0,64.928-39.083,39.084-.395,78.676,0,79.072,1.313,1.323,31.96,32.969,0,64.928-39.083,39.084-.395,78.676,0,79.072,1.313,1.323,31.96,32.969,0,64.928-20.4,20.4-19.259,40.962-14.707,54.617a68.261,68.261,0,0,0,14.707,24.455c1.313,1.323,31.96,32.969,0,64.928-20.4,20.4-19.259,40.962-14.707,54.617a68.261,68.261,0,0,0,14.707,24.455c1.313,1.323,31.96,32.969,0,64.929-20.4,20.4-19.259,40.961-14.707,54.616a68.25,68.25,0,0,0,14.707,24.455c1.313,1.324,31.96,32.969,0,64.929-20.4,20.4-19.259,40.961-14.707,54.616a68.25,68.25,0,0,0,14.707,24.455c1.313,1.324,31.96,32.969,0,64.929-39.083,39.083-.395,78.675,0,79.071,1.313,1.324,31.96,32.969,0,64.929-39.083,39.083-.395,78.675,0,79.071,1.313,1.324,31.96,32.969,0,64.929-20.4,20.4-19.259,40.961-14.707,54.616a68.25,68.25,0,0,0,14.707,24.455c1.313,1.324,31.96,32.969,0,64.929-20.4,20.4-19.259,40.961-14.707,54.616a68.25,68.25,0,0,0,14.707,24.455c1.313,1.324,31.96,32.969,0,64.929-20.4,20.4-19.259,40.961-14.707,54.616a68.25,68.25,0,0,0,14.707,24.455c1.313,1.324,31.96,32.969,0,64.929-39.083,39.083-.395,78.675,0,79.071,1.313,1.324,31.96,32.969,0,64.929H81.368c9.135-14,20.779-42.106-7.073-69.958C42.335,3531.017,72.982,3499.372,74.3,3498.048Z" fill="#e0ffff"/>
    <path d="M127.616,17.012A51.846,51.846,0,0,0,130.355,0H120.326c.4,19.047-13.61,33.51-14.489,34.4-.4.4-39.083,39.989,0,79.073,31.96,31.959,1.313,63.6,0,64.927A68.272,68.272,0,0,0,91.13,202.85c-4.552,13.655-5.695,34.214,14.707,54.618,31.96,31.959,1.313,63.6,0,64.927-.4.4-39.083,39.989,0,79.073,31.96,31.959,1.313,63.6,0,64.927A68.272,68.272,0,0,0,91.13,490.85c-4.552,13.655-5.695,34.214,14.707,54.618,31.96,31.959,1.313,63.6,0,64.927-.4.4-39.083,39.989,0,79.073,31.96,31.959,1.313,63.6,0,64.927A68.272,68.272,0,0,0,91.13,778.85c-4.552,13.654-5.695,34.214,14.707,54.618,31.96,31.959,1.313,63.6,0,64.927-.4.4-39.083,39.989,0,79.073,31.96,31.959,1.313,63.6,0,64.927A68.272,68.272,0,0,0,91.13,1066.85c-4.552,13.655-5.695,34.214,14.707,54.617h0c31.959,31.959,1.313,63.6,0,64.927A68.261,68.261,0,0,0,91.13,1210.85c-4.552,13.654-5.7,34.214,14.707,54.617,31.959,31.959,1.313,63.6,0,64.928-.4.395-39.083,39.988,0,79.072,31.959,31.959,1.313,63.6,0,64.928A68.261,68.261,0,0,0,91.13,1498.85c-4.552,13.654-5.7,34.214,14.707,54.617,31.959,31.959,1.313,63.6,0,64.928A68.261,68.261,0,0,0,91.13,1642.85c-4.552,13.654-5.7,34.214,14.707,54.617,31.959,31.959,1.313,63.6,0,64.928-.4.395-39.083,39.988,0,79.072,31.959,31.959,1.313,63.6,0,64.928A68.261,68.261,0,0,0,91.13,1930.85c-4.552,13.654-5.7,34.214,14.707,54.617,31.959,31.959,1.313,63.605,0,64.928A68.261,68.261,0,0,0,91.13,2074.85c-4.552,13.654-5.7,34.214,14.707,54.617,31.959,31.959,1.313,63.605,0,64.928A68.261,68.261,0,0,0,91.13,2218.85c-4.552,13.654-5.7,34.214,14.707,54.617,31.959,31.959,1.313,63.605,0,64.928-.4.395-39.083,39.988,0,79.072,31.959,31.959,1.313,63.6,0,64.928A68.25,68.25,0,0,0,91.13,2506.85c-4.552,13.655-5.7,34.214,14.707,54.617,31.959,31.959,1.313,63.6,0,64.928A68.25,68.25,0,0,0,91.13,2650.85c-4.552,13.655-5.7,34.214,14.707,54.617,31.959,31.959,1.313,63.6,0,64.928A68.25,68.25,0,0,0,91.13,2794.85c-4.552,13.655-5.7,34.214,14.707,54.617,31.959,31.959,1.313,63.6,0,64.928-.4.4-39.083,39.988,0,79.072,31.959,31.959,1.313,63.6,0,64.928A68.25,68.25,0,0,0,91.13,3082.85c-4.552,13.655-5.7,34.214,14.707,54.617,31.959,31.959,1.313,63.6,0,64.928A68.25,68.25,0,0,0,91.13,3226.85c-4.552,13.655-5.7,34.214,14.707,54.617,31.959,31.959,1.313,63.6,0,64.928-.4.4-39.083,39.988,0,79.072,31.959,31.959,1.313,63.6,0,64.928A68.25,68.25,0,0,0,91.13,3514.85c-4.552,13.655-5.7,34.214,14.707,54.617,31.959,31.959,1.313,63.6,0,64.928l.013.013h12.825a67.431,67.431,0,0,0,8.941-17.4c4.552-13.655,5.7-34.214-14.708-54.617-31.959-31.959-1.313-63.6,0-64.928.4-.4,39.084-39.988,0-79.072-31.959-31.959-1.313-63.6,0-64.928a68.244,68.244,0,0,0,14.708-24.455c4.552-13.655,5.7-34.214-14.708-54.617-31.959-31.959-1.313-63.6,0-64.928.4-.4,39.084-39.988,0-79.072-31.959-31.959-1.313-63.6,0-64.928a68.244,68.244,0,0,0,14.708-24.455c4.552-13.655,5.7-34.214-14.708-54.617-31.959-31.959-1.313-63.6,0-64.928.4-.4,39.084-39.988,0-79.072-31.959-31.959-1.313-63.6,0-64.928a68.244,68.244,0,0,0,14.708-24.455c4.552-13.655,5.7-34.214-14.708-54.617-31.959-31.959-1.313-63.6,0-64.928.4-.4,39.084-39.988,0-79.072-31.959-31.959-1.313-63.6,0-64.928a68.244,68.244,0,0,0,14.708-24.455c4.552-13.655,5.7-34.214-14.708-54.617-31.959-31.959-1.313-63.605,0-64.928a68.256,68.256,0,0,0,14.708-24.455c4.552-13.654,5.7-34.214-14.708-54.617-31.959-31.959-1.313-63.605,0-64.928.4-.395,39.084-39.988,0-79.072-31.959-31.959-1.313-63.605,0-64.928a68.256,68.256,0,0,0,14.708-24.455c4.552-13.654,5.7-34.214-14.708-54.617-31.959-31.959-1.313-63.605,0-64.928.4-.4,39.084-39.988,0-79.072-31.959-31.959-1.313-63.605,0-64.928a68.256,68.256,0,0,0,14.708-24.455c4.552-13.654,5.7-34.214-14.708-54.617-31.959-31.959-1.313-63.605,0-64.928.4-.4,39.084-39.988,0-79.072-31.959-31.959-1.313-63.605,0-64.928a68.256,68.256,0,0,0,14.708-24.455c4.552-13.654,5.7-34.214-14.708-54.617-31.959-31.959-1.313-63.605,0-64.928.4-.4,39.084-39.988,0-79.072-31.959-31.959-1.313-63.605,0-64.928a68.256,68.256,0,0,0,14.708-24.455c4.552-13.654,5.7-34.214-14.707-54.617h0c-31.959-31.959-1.312-63.605,0-64.927a68.27,68.27,0,0,0,14.707-24.456c4.552-13.654,5.7-34.213-14.707-54.617-31.96-31.959-1.313-63.6,0-64.927.395-.4,39.083-39.989,0-79.073-31.96-31.959-1.313-63.6,0-64.927a68.27,68.27,0,0,0,14.707-24.456c4.552-13.654,5.7-34.213-14.707-54.617-31.96-31.959-1.313-63.6,0-64.927a68.27,68.27,0,0,0,14.707-24.456c4.552-13.654,5.7-34.213-14.707-54.617-31.96-31.959-1.313-63.6,0-64.927.395-.4,39.083-39.989,0-79.073-31.96-31.959-1.313-63.6,0-64.927a68.27,68.27,0,0,0,14.707-24.456c4.552-13.654,5.7-34.213-14.707-54.617-31.96-31.959-1.313-63.6,0-64.927a68.27,68.27,0,0,0,14.707-24.456c4.552-13.654,5.7-34.213-14.707-54.617-31.96-31.959-1.313-63.6,0-64.927A68.27,68.27,0,0,0,127.616,17.012Z" fill="blue"/>
    <path d="M120.326,0H109.309a30.172,30.172,0,0,1-1.458,10.026,46.166,46.166,0,0,1-9.823,16.622A80.522,80.522,0,0,0,80.575,56.013c-5.356,16.427-6.67,41.079,17.484,65.232,10.3,10.3,13.5,21.019,9.792,32.781a46.166,46.166,0,0,1-9.823,16.622,79.191,79.191,0,0,0-17.334,28.724c-7.82,23.46-1.654,46.854,17.365,65.873,10.3,10.3,13.5,21.019,9.792,32.781a46.166,46.166,0,0,1-9.823,16.622,80.522,80.522,0,0,0-17.453,29.365c-5.356,16.427-6.67,41.079,17.484,65.232,10.3,10.3,13.5,21.019,9.792,32.781a46.166,46.166,0,0,1-9.823,16.622,79.191,79.191,0,0,0-17.334,28.724c-7.82,23.46-1.654,46.854,17.365,65.874,10.3,10.3,13.5,21.018,9.792,32.779a46.164,46.164,0,0,1-9.823,16.623,80.522,80.522,0,0,0-17.453,29.365c-5.356,16.427-6.67,41.079,17.484,65.233,10.3,10.3,13.5,21.018,9.792,32.779a46.164,46.164,0,0,1-9.823,16.623,79.191,79.191,0,0,0-17.334,28.724c-7.82,23.46-1.654,46.854,17.365,65.874,10.3,10.3,13.5,21.018,9.792,32.779a46.164,46.164,0,0,1-9.823,16.623,80.522,80.522,0,0,0-17.453,29.365c-5.356,16.427-6.67,41.079,17.484,65.233,10.3,10.3,13.5,21.018,9.792,32.779a46.164,46.164,0,0,1-9.823,16.623,79.191,79.191,0,0,0-17.334,28.724c-7.82,23.459-1.654,46.854,17.365,65.873,10.294,10.3,13.5,21.015,9.793,32.775a46.165,46.165,0,0,1-9.823,16.627,79.191,79.191,0,0,0-17.335,28.725c-7.821,23.459-1.654,46.854,17.365,65.873,10.294,10.3,13.5,21.015,9.793,32.775a46.165,46.165,0,0,1-9.823,16.627,80.59,80.59,0,0,0-17.455,29.366c-5.355,16.427-6.669,41.078,17.485,65.232,10.294,10.3,13.5,21.015,9.793,32.775a46.165,46.165,0,0,1-9.823,16.627,79.191,79.191,0,0,0-17.335,28.725c-7.821,23.459-1.654,46.854,17.365,65.873,10.294,10.3,13.5,21.015,9.793,32.775a46.165,46.165,0,0,1-9.823,16.627,79.191,79.191,0,0,0-17.335,28.725c-7.821,23.459-1.654,46.854,17.365,65.873,10.294,10.3,13.5,21.015,9.793,32.775a46.165,46.165,0,0,1-9.823,16.627,80.59,80.59,0,0,0-17.455,29.366c-5.355,16.427-6.669,41.078,17.485,65.232,10.294,10.3,13.5,21.015,9.793,32.775a46.165,46.165,0,0,1-9.823,16.627,79.193,79.193,0,0,0-17.335,28.724c-7.821,23.46-1.654,46.855,17.365,65.874,10.294,10.3,13.5,21.015,9.793,32.775a46.165,46.165,0,0,1-9.823,16.627,79.193,79.193,0,0,0-17.335,28.724c-7.821,23.46-1.654,46.855,17.365,65.874,10.294,10.3,13.5,21.015,9.793,32.775a46.165,46.165,0,0,1-9.823,16.627,79.193,79.193,0,0,0-17.335,28.724c-7.821,23.46-1.654,46.855,17.365,65.874,10.294,10.3,13.5,21.015,9.793,32.775a46.165,46.165,0,0,1-9.823,16.627,80.59,80.59,0,0,0-17.455,29.366c-5.355,16.426-6.669,41.078,17.485,65.232,10.3,10.3,13.5,21.029,9.786,32.8a46.182,46.182,0,0,1-9.82,16.609,79.051,79.051,0,0,0-17.331,28.72c-7.821,23.461-1.654,46.855,17.365,65.874,10.3,10.3,13.5,21.029,9.786,32.8a46.182,46.182,0,0,1-9.82,16.609,79.051,79.051,0,0,0-17.331,28.72c-7.821,23.461-1.654,46.855,17.365,65.874,10.3,10.3,13.5,21.029,9.786,32.8a46.182,46.182,0,0,1-9.82,16.609,79.051,79.051,0,0,0-17.331,28.72c-7.821,23.461-1.654,46.855,17.365,65.874,10.3,10.3,13.5,21.029,9.786,32.8a46.182,46.182,0,0,1-9.82,16.609,80.529,80.529,0,0,0-17.451,29.362c-5.355,16.427-6.669,41.078,17.485,65.232,10.3,10.3,13.5,21.029,9.786,32.8a46.182,46.182,0,0,1-9.82,16.609,79.051,79.051,0,0,0-17.331,28.72c-7.821,23.461-1.654,46.855,17.365,65.874,10.3,10.3,13.5,21.029,9.786,32.8a46.182,46.182,0,0,1-9.82,16.609,79.051,79.051,0,0,0-17.331,28.72c-7.821,23.461-1.654,46.855,17.365,65.874,10.3,10.3,13.5,21.029,9.786,32.8a46.182,46.182,0,0,1-9.82,16.609,80.529,80.529,0,0,0-17.451,29.362c-5.355,16.427-6.669,41.078,17.485,65.232,10.3,10.3,13.5,21.029,9.786,32.8a46.182,46.182,0,0,1-9.82,16.609,79.051,79.051,0,0,0-17.331,28.72c-7.821,23.461-1.654,46.855,17.365,65.874,10.3,10.3,13.5,21.029,9.786,32.8a46.182,46.182,0,0,1-9.82,16.609l-7.7,7.778h15.542l-.034-.034c1.313-1.324,31.959-32.969,0-64.928-20.4-20.4-19.259-40.962-14.707-54.617a68.25,68.25,0,0,1,14.707-24.455c1.313-1.324,31.959-32.969,0-64.928-39.083-39.084-.4-78.676,0-79.072,1.313-1.324,31.959-32.969,0-64.928-20.4-20.4-19.259-40.962-14.707-54.617a68.25,68.25,0,0,1,14.707-24.455c1.313-1.324,31.959-32.969,0-64.928-20.4-20.4-19.259-40.962-14.707-54.617a68.25,68.25,0,0,1,14.707-24.455c1.313-1.324,31.959-32.969,0-64.928-39.083-39.084-.4-78.676,0-79.072,1.313-1.324,31.959-32.969,0-64.928-20.4-20.4-19.259-40.962-14.707-54.617a68.25,68.25,0,0,1,14.707-24.455c1.313-1.324,31.959-32.969,0-64.928-20.4-20.4-19.259-40.962-14.707-54.617a68.25,68.25,0,0,1,14.707-24.455c1.313-1.324,31.959-32.969,0-64.928-20.4-20.4-19.259-40.962-14.707-54.617a68.25,68.25,0,0,1,14.707-24.455c1.313-1.324,31.959-32.969,0-64.928-39.083-39.084-.4-78.677,0-79.072,1.313-1.323,31.959-32.969,0-64.928-20.4-20.4-19.259-40.963-14.707-54.617a68.261,68.261,0,0,1,14.707-24.455c1.313-1.323,31.959-32.969,0-64.928-20.4-20.4-19.259-40.963-14.707-54.617a68.261,68.261,0,0,1,14.707-24.455c1.313-1.323,31.959-32.969,0-64.928-20.4-20.4-19.259-40.963-14.707-54.617a68.261,68.261,0,0,1,14.707-24.455c1.313-1.323,31.959-32.969,0-64.928-39.083-39.084-.4-78.677,0-79.072,1.313-1.323,31.959-32.969,0-64.928-20.4-20.4-19.259-40.963-14.707-54.617a68.261,68.261,0,0,1,14.707-24.455c1.313-1.323,31.959-32.969,0-64.928-20.4-20.4-19.259-40.963-14.707-54.617a68.261,68.261,0,0,1,14.707-24.455c1.313-1.323,31.959-32.969,0-64.928-39.083-39.084-.4-78.677,0-79.072,1.313-1.323,31.959-32.969,0-64.928-20.4-20.4-19.259-40.963-14.707-54.617a68.261,68.261,0,0,1,14.707-24.455c1.313-1.323,31.959-32.968,0-64.927h0c-20.4-20.4-19.259-40.962-14.707-54.617a68.272,68.272,0,0,1,14.707-24.455c1.313-1.323,31.96-32.968,0-64.927-39.083-39.084-.4-78.677,0-79.073,1.313-1.323,31.96-32.968,0-64.927-20.4-20.4-19.259-40.964-14.707-54.618A68.272,68.272,0,0,1,105.837,754.4c1.313-1.323,31.96-32.968,0-64.927-39.083-39.084-.4-78.677,0-79.073,1.313-1.323,31.96-32.968,0-64.927-20.4-20.4-19.259-40.963-14.707-54.618A68.272,68.272,0,0,1,105.837,466.4c1.313-1.323,31.96-32.968,0-64.927-39.083-39.084-.4-78.677,0-79.073,1.313-1.323,31.96-32.968,0-64.927-20.4-20.4-19.259-40.963-14.707-54.618A68.272,68.272,0,0,1,105.837,178.4c1.313-1.323,31.96-32.968,0-64.927-39.083-39.084-.4-78.677,0-79.073C106.716,33.51,120.724,19.047,120.326,0Z" fill="#009"/>
    <path d="M120.717,481.216a80.615,80.615,0,0,0,17.454-29.367c5.356-16.426,6.67-41.078-17.484-65.232-10.3-10.294-13.5-21.015-9.794-32.774a46.153,46.153,0,0,1,9.824-16.627,79.212,79.212,0,0,0,17.335-28.725c7.82-23.46,1.654-46.855-17.365-65.874-10.3-10.294-13.5-21.015-9.794-32.774a46.153,46.153,0,0,1,9.824-16.627,79.212,79.212,0,0,0,17.335-28.725c7.82-23.46,1.654-46.855-17.365-65.874-10.3-10.294-13.5-21.015-9.794-32.774a46.153,46.153,0,0,1,9.824-16.627,79.212,79.212,0,0,0,17.335-28.725A62.217,62.217,0,0,0,141.343,0H130.355a51.846,51.846,0,0,1-2.739,17.012,68.27,68.27,0,0,1-14.707,24.456c-1.313,1.323-31.96,32.968,0,64.927,20.4,20.4,19.259,40.963,14.707,54.617a68.27,68.27,0,0,1-14.707,24.456c-1.313,1.323-31.96,32.968,0,64.927,20.4,20.4,19.259,40.963,14.707,54.617a68.27,68.27,0,0,1-14.707,24.456c-1.313,1.323-31.96,32.968,0,64.927,39.083,39.084.395,78.677,0,79.073-1.313,1.323-31.96,32.968,0,64.927,20.4,20.4,19.259,40.963,14.707,54.617a68.27,68.27,0,0,1-14.707,24.456c-1.313,1.323-31.96,32.968,0,64.927,20.4,20.4,19.259,40.963,14.707,54.617a68.27,68.27,0,0,1-14.707,24.456c-1.313,1.323-31.96,32.968,0,64.927,39.083,39.084.395,78.677,0,79.073-1.313,1.323-31.96,32.968,0,64.927,20.4,20.4,19.259,40.963,14.707,54.617a68.27,68.27,0,0,1-14.707,24.456c-1.313,1.322-31.96,32.968,0,64.927h0c20.4,20.4,19.259,40.963,14.707,54.617a68.256,68.256,0,0,1-14.708,24.455c-1.313,1.323-31.959,32.969,0,64.928,39.084,39.084.4,78.677,0,79.072-1.313,1.323-31.959,32.969,0,64.928,20.4,20.4,19.26,40.963,14.708,54.617a68.256,68.256,0,0,1-14.708,24.455c-1.313,1.323-31.959,32.969,0,64.928,39.084,39.084.4,78.677,0,79.072-1.313,1.323-31.959,32.969,0,64.928,20.4,20.4,19.26,40.963,14.708,54.617a68.256,68.256,0,0,1-14.708,24.455c-1.313,1.323-31.959,32.969,0,64.928,39.084,39.084.4,78.677,0,79.072-1.313,1.323-31.959,32.969,0,64.928,20.4,20.4,19.26,40.963,14.708,54.617a68.256,68.256,0,0,1-14.708,24.455c-1.313,1.323-31.959,32.969,0,64.928,39.084,39.084.4,78.677,0,79.072-1.313,1.323-31.959,32.969,0,64.928,20.4,20.4,19.26,40.963,14.708,54.617a68.256,68.256,0,0,1-14.708,24.455c-1.313,1.323-31.959,32.969,0,64.928,20.4,20.4,19.26,40.962,14.708,54.617a68.244,68.244,0,0,1-14.708,24.455c-1.313,1.324-31.959,32.969,0,64.928,39.084,39.084.4,78.676,0,79.072-1.313,1.324-31.959,32.969,0,64.928,20.4,20.4,19.26,40.962,14.708,54.617a68.244,68.244,0,0,1-14.708,24.455c-1.313,1.324-31.959,32.969,0,64.928,39.084,39.084.4,78.676,0,79.072-1.313,1.324-31.959,32.969,0,64.928,20.4,20.4,19.26,40.962,14.708,54.617a68.244,68.244,0,0,1-14.708,24.455c-1.313,1.324-31.959,32.969,0,64.928,39.084,39.084.4,78.676,0,79.072-1.313,1.324-31.959,32.969,0,64.928,20.4,20.4,19.26,40.962,14.708,54.617a68.244,68.244,0,0,1-14.708,24.455c-1.313,1.324-31.959,32.969,0,64.928,39.084,39.084.4,78.676,0,79.072-1.313,1.324-31.959,32.969,0,64.928,20.4,20.4,19.26,40.962,14.708,54.617a67.458,67.458,0,0,1-8.955,17.417H131.72a75.619,75.619,0,0,0,6.331-13.939c7.821-23.46,1.654-46.854-17.364-65.873-10.3-10.3-13.5-21.025-9.789-32.791a46.176,46.176,0,0,1,9.821-16.614,80.612,80.612,0,0,0,17.452-29.363c5.356-16.427,6.669-41.078-17.484-65.232-10.3-10.3-13.5-21.025-9.789-32.791a46.176,46.176,0,0,1,9.821-16.614,79.1,79.1,0,0,0,17.332-28.722c7.821-23.46,1.654-46.854-17.364-65.873-10.3-10.3-13.5-21.025-9.789-32.791a46.176,46.176,0,0,1,9.821-16.614,80.612,80.612,0,0,0,17.452-29.363c5.356-16.427,6.669-41.078-17.484-65.232-10.3-10.3-13.5-21.025-9.789-32.791a46.176,46.176,0,0,1,9.821-16.614,79.1,79.1,0,0,0,17.332-28.722c7.821-23.46,1.654-46.854-17.364-65.873-10.3-10.3-13.5-21.025-9.789-32.791a46.176,46.176,0,0,1,9.821-16.614,80.612,80.612,0,0,0,17.452-29.363c5.356-16.427,6.669-41.078-17.484-65.232-10.3-10.3-13.5-21.025-9.789-32.791a46.176,46.176,0,0,1,9.821-16.614,79.1,79.1,0,0,0,17.332-28.722c7.821-23.46,1.654-46.854-17.364-65.873-10.3-10.3-13.5-21.025-9.789-32.791a46.176,46.176,0,0,1,9.821-16.614,80.612,80.612,0,0,0,17.452-29.363c5.356-16.427,6.669-41.078-17.484-65.232-10.3-10.3-13.5-21.025-9.789-32.791a46.176,46.176,0,0,1,9.821-16.614,79.1,79.1,0,0,0,17.332-28.722c7.821-23.46,1.654-46.854-17.364-65.873-10.3-10.3-13.5-21.019-9.792-32.78a46.148,46.148,0,0,1,9.823-16.623,79.195,79.195,0,0,0,17.333-28.724c7.821-23.459,1.654-46.854-17.364-65.873-10.3-10.3-13.5-21.019-9.792-32.78a46.148,46.148,0,0,1,9.823-16.623,80.538,80.538,0,0,0,17.453-29.365c5.356-16.427,6.669-41.078-17.484-65.232-10.3-10.3-13.5-21.019-9.792-32.78a46.148,46.148,0,0,1,9.823-16.623,79.195,79.195,0,0,0,17.333-28.724c7.821-23.459,1.654-46.854-17.364-65.873-10.3-10.3-13.5-21.019-9.792-32.78a46.148,46.148,0,0,1,9.823-16.623,80.538,80.538,0,0,0,17.453-29.365c5.356-16.427,6.669-41.078-17.484-65.232-10.3-10.3-13.5-21.019-9.792-32.78a46.148,46.148,0,0,1,9.823-16.623,79.195,79.195,0,0,0,17.333-28.724c7.821-23.459,1.654-46.854-17.364-65.873-10.3-10.3-13.5-21.019-9.792-32.78a46.148,46.148,0,0,1,9.823-16.623,80.538,80.538,0,0,0,17.453-29.365c5.356-16.427,6.669-41.078-17.484-65.232-10.3-10.3-13.5-21.019-9.792-32.78a46.148,46.148,0,0,1,9.823-16.623,79.195,79.195,0,0,0,17.333-28.724c7.821-23.459,1.654-46.854-17.364-65.873-10.3-10.3-13.5-21.019-9.792-32.78a46.148,46.148,0,0,1,9.823-16.623,80.538,80.538,0,0,0,17.453-29.365c5.356-16.427,6.669-41.078-17.484-65.232-10.3-10.3-13.5-21.019-9.792-32.78a46.148,46.148,0,0,1,9.823-16.623,79.195,79.195,0,0,0,17.333-28.724c7.821-23.459,1.654-46.854-17.364-65.873h0c-10.294-10.294-13.5-21.015-9.793-32.774a46.153,46.153,0,0,1,9.824-16.627,79.21,79.21,0,0,0,17.335-28.726c7.82-23.459,1.654-46.854-17.365-65.873-10.3-10.294-13.5-21.015-9.794-32.774a46.153,46.153,0,0,1,9.824-16.627,80.615,80.615,0,0,0,17.454-29.367c5.356-16.426,6.67-41.078-17.484-65.232-10.3-10.294-13.5-21.015-9.794-32.774a46.153,46.153,0,0,1,9.824-16.627,79.21,79.21,0,0,0,17.335-28.726c7.82-23.459,1.654-46.854-17.365-65.873-10.3-10.294-13.5-21.015-9.794-32.774a46.153,46.153,0,0,1,9.824-16.627,79.21,79.21,0,0,0,17.335-28.726c7.82-23.459,1.654-46.854-17.365-65.873-10.3-10.294-13.5-21.015-9.794-32.774A46.153,46.153,0,0,1,120.717,481.216Z" fill="#009"/>
  </g>
</svg>
