<svg xmlns="http://www.w3.org/2000/svg" width="141.391" height="3634.429" viewBox="0 0 141.391 3634.429">
  <g>
    <path d="M67.1,136.381c-.394.4-39.083,39.988,0,79.072,31.96,31.959,1.314,63.6,0,64.928a68.281,68.281,0,0,0-14.707,24.455c-4.552,13.655-5.695,34.214,14.707,54.617,31.96,31.959,1.314,63.6,0,64.928a68.281,68.281,0,0,0-14.707,24.455c-4.552,13.655-5.695,34.214,14.707,54.617,31.96,31.959,1.314,63.6,0,64.928a68.281,68.281,0,0,0-14.707,24.455c-4.552,13.655-5.695,34.214,14.707,54.617,31.96,31.959,1.314,63.6,0,64.928-.394.4-39.083,39.988,0,79.072,31.96,31.959,1.314,63.6,0,64.928-.394.4-39.083,39.988,0,79.072,31.96,31.959,1.314,63.6,0,64.928a68.281,68.281,0,0,0-14.707,24.455c-4.552,13.655-5.695,34.214,14.707,54.617,31.96,31.959,1.314,63.6,0,64.928a68.281,68.281,0,0,0-14.707,24.455c-4.552,13.655-5.695,34.214,14.707,54.617,31.96,31.959,1.314,63.605,0,64.928a68.3,68.3,0,0,0-14.707,24.455c-4.552,13.655-5.695,34.214,14.707,54.617,31.96,31.959,1.314,63.605,0,64.928a68.3,68.3,0,0,0-14.707,24.455c-4.552,13.655-5.695,34.214,14.707,54.617,31.96,31.959,1.314,63.605,0,64.928-.394.4-39.083,39.989,0,79.072,31.96,31.959,1.314,63.605,0,64.928-.394.4-39.083,39.989,0,79.072,31.96,31.959,1.314,63.605,0,64.928a68.3,68.3,0,0,0-14.707,24.455c-4.552,13.655-5.695,34.214,14.707,54.617,31.96,31.959,1.314,63.605,0,64.928a68.3,68.3,0,0,0-14.707,24.455c-4.552,13.655-5.695,34.214,14.707,54.617,31.96,31.959,1.314,63.605,0,64.928a68.3,68.3,0,0,0-14.707,24.455c-4.552,13.655-5.695,34.214,14.707,54.617,31.96,31.959,1.314,63.605,0,64.928-.394.4-39.083,39.989,0,79.072,31.96,31.959,1.314,63.605,0,64.928h.692c-9.135,14-20.78,42.105,7.073,69.958,31.96,31.96,1.313,63.605,0,64.929-.4.395-39.083,39.988,0,79.071,31.96,31.96,1.313,63.605,0,64.929a68.25,68.25,0,0,0-14.707,24.455c-4.552,13.654-5.7,34.214,14.707,54.616,31.96,31.96,1.313,63.605,0,64.929a68.25,68.25,0,0,0-14.707,24.455c-4.552,13.654-5.7,34.214,14.707,54.616,31.96,31.96,1.313,63.605,0,64.929a68.25,68.25,0,0,0-14.707,24.455c-4.552,13.654-5.7,34.214,14.707,54.616,31.96,31.96,1.313,63.605,0,64.929-.4.395-39.083,39.988,0,79.071,31.96,31.96,1.313,63.605,0,64.929-.4.395-39.083,39.988,0,79.071,31.96,31.96,1.313,63.605,0,64.929a68.25,68.25,0,0,0-14.707,24.455c-4.552,13.654-5.7,34.214,14.707,54.616,31.96,31.96,1.313,63.605,0,64.929a68.25,68.25,0,0,0-14.707,24.455,49.662,49.662,0,0,0-1.612,26.706H110.9c-3.2-11.813-2.12-26.894,13.034-42.048,20.4-20.4,19.259-40.962,14.707-54.616a68.265,68.265,0,0,0-14.707-24.455c-1.313-1.324-31.96-32.969,0-64.929,20.4-20.4,19.259-40.962,14.707-54.616a68.265,68.265,0,0,0-14.707-24.455c-1.313-1.324-31.96-32.969,0-64.929,39.083-39.083.395-78.676,0-79.071-1.313-1.324-31.96-32.969,0-64.929,39.083-39.083.395-78.676,0-79.071-1.313-1.324-31.96-32.969,0-64.929,20.4-20.4,19.259-40.962,14.707-54.616a68.265,68.265,0,0,0-14.707-24.455c-1.313-1.324-31.96-32.969,0-64.929,20.4-20.4,19.259-40.962,14.707-54.616a68.265,68.265,0,0,0-14.707-24.455c-1.313-1.324-31.96-32.969,0-64.929,20.4-20.4,19.259-40.962,14.707-54.616a68.265,68.265,0,0,0-14.707-24.455c-1.313-1.324-31.96-32.969,0-64.929,39.083-39.083.395-78.676,0-79.071-1.313-1.324-31.96-32.969,0-64.929,25.528-35.894-7.4-69.593-7.765-69.958-1.313-1.323-31.959-32.969,0-64.928,39.083-39.084.395-78.676,0-79.072-1.313-1.323-31.959-32.969,0-64.928,20.4-20.4,19.259-40.962,14.707-54.617a68.272,68.272,0,0,0-14.707-24.455c-1.313-1.323-31.959-32.969,0-64.928,20.4-20.4,19.259-40.962,14.707-54.617a68.272,68.272,0,0,0-14.707-24.455c-1.313-1.323-31.959-32.969,0-64.928,20.4-20.4,19.259-40.962,14.707-54.617a68.272,68.272,0,0,0-14.707-24.455c-1.313-1.323-31.959-32.969,0-64.928,39.083-39.084.395-78.676,0-79.072-1.313-1.323-31.959-32.969,0-64.928,39.083-39.084.395-78.676,0-79.072-1.313-1.323-31.959-32.969,0-64.928,20.4-20.4,19.259-40.962,14.707-54.617a68.272,68.272,0,0,0-14.707-24.455c-1.313-1.323-31.959-32.969,0-64.928,20.4-20.4,19.259-40.962,14.707-54.617a68.272,68.272,0,0,0-14.707-24.455c-1.313-1.323-31.959-32.969,0-64.928,20.4-20.4,19.259-40.962,14.707-54.617a68.25,68.25,0,0,0-14.707-24.455c-1.313-1.324-31.959-32.969,0-64.928,20.4-20.4,19.259-40.962,14.707-54.617a68.25,68.25,0,0,0-14.707-24.455c-1.313-1.324-31.959-32.969,0-64.928,39.083-39.084.395-78.676,0-79.072-1.313-1.324-31.959-32.969,0-64.928,39.083-39.084.395-78.676,0-79.072-1.313-1.324-31.959-32.969,0-64.928,20.4-20.4,19.259-40.962,14.707-54.617a68.25,68.25,0,0,0-14.707-24.455c-1.313-1.324-31.959-32.969,0-64.928,20.4-20.4,19.259-40.962,14.707-54.617a68.25,68.25,0,0,0-14.707-24.455c-1.313-1.324-31.959-32.969,0-64.928,20.4-20.4,19.259-40.962,14.707-54.617a68.25,68.25,0,0,0-14.707-24.455c-1.313-1.324-31.959-32.969,0-64.928,39.083-39.084.395-78.676,0-79.072-1.313-1.324-31.959-32.969,0-64.928H60.023c-9.135,14-20.779,42.105,7.073,69.958C99.056,103.412,68.41,135.057,67.1,136.381Z" fill="#e0ffff"/>
    <path d="M13.775,3617.417a51.873,51.873,0,0,0-2.738,17.012H21.065c-.4-19.047,13.61-33.51,14.489-34.395.395-.395,39.083-39.988,0-79.072-31.959-31.959-1.313-63.605,0-64.928a68.272,68.272,0,0,0,14.707-24.455c4.552-13.655,5.7-34.214-14.707-54.617-31.959-31.959-1.313-63.605,0-64.928.395-.395,39.083-39.988,0-79.072-31.959-31.959-1.313-63.605,0-64.928a68.272,68.272,0,0,0,14.707-24.455c4.552-13.655,5.7-34.214-14.707-54.617-31.959-31.959-1.313-63.605,0-64.928.395-.395,39.083-39.988,0-79.072-31.959-31.959-1.313-63.605,0-64.928a68.272,68.272,0,0,0,14.707-24.455c4.552-13.654,5.7-34.214-14.707-54.617-31.959-31.959-1.313-63.605,0-64.928.395-.395,39.083-39.988,0-79.072-31.959-31.959-1.313-63.605,0-64.928a68.272,68.272,0,0,0,14.707-24.455c4.552-13.654,5.7-34.214-14.707-54.617h0c-31.959-31.959-1.313-63.605,0-64.928a68.256,68.256,0,0,0,14.708-24.455c4.552-13.654,5.7-34.214-14.708-54.617-31.959-31.959-1.313-63.605,0-64.928.4-.395,39.084-39.988,0-79.072-31.959-31.959-1.313-63.605,0-64.928a68.256,68.256,0,0,0,14.708-24.455c4.552-13.654,5.7-34.214-14.708-54.617-31.959-31.959-1.313-63.605,0-64.928a68.256,68.256,0,0,0,14.708-24.455c4.552-13.654,5.7-34.214-14.708-54.617-31.959-31.959-1.313-63.605,0-64.928.4-.4,39.084-39.988,0-79.072-31.959-31.959-1.313-63.605,0-64.928a68.256,68.256,0,0,0,14.708-24.455c4.552-13.654,5.7-34.214-14.708-54.617-31.959-31.959-1.313-63.605,0-64.928a68.256,68.256,0,0,0,14.708-24.455c4.552-13.654,5.7-34.214-14.708-54.617-31.959-31.959-1.313-63.605,0-64.928a68.256,68.256,0,0,0,14.708-24.455c4.552-13.654,5.7-34.214-14.708-54.617-31.959-31.959-1.313-63.605,0-64.928.4-.4,39.084-39.988,0-79.072-31.959-31.959-1.313-63.6,0-64.928a68.244,68.244,0,0,0,14.708-24.455c4.552-13.655,5.7-34.214-14.708-54.617-31.959-31.959-1.313-63.6,0-64.928a68.244,68.244,0,0,0,14.708-24.455c4.552-13.655,5.7-34.214-14.708-54.617-31.959-31.959-1.313-63.6,0-64.928a68.244,68.244,0,0,0,14.708-24.455c4.552-13.655,5.7-34.214-14.708-54.617-31.959-31.959-1.313-63.6,0-64.928.4-.4,39.084-39.988,0-79.072-31.959-31.959-1.313-63.6,0-64.928a68.244,68.244,0,0,0,14.708-24.455c4.552-13.655,5.7-34.214-14.708-54.617-31.959-31.959-1.313-63.6,0-64.928a68.244,68.244,0,0,0,14.708-24.455c4.552-13.655,5.7-34.214-14.708-54.617-31.959-31.959-1.313-63.6,0-64.928.4-.4,39.084-39.988,0-79.072-31.959-31.959-1.313-63.6,0-64.928a68.244,68.244,0,0,0,14.708-24.455c4.552-13.655,5.7-34.214-14.708-54.617C3.6,33,34.241,1.358,35.554.034L35.542.021H22.716a67.4,67.4,0,0,0-8.94,17.4C9.224,31.072,8.081,51.631,28.483,72.034c31.959,31.959,1.313,63.6,0,64.928-.395.4-39.083,39.988,0,79.072,31.959,31.959,1.313,63.6,0,64.928a68.25,68.25,0,0,0-14.707,24.455c-4.552,13.655-5.695,34.214,14.707,54.617,31.959,31.959,1.313,63.6,0,64.928-.395.4-39.083,39.988,0,79.072,31.959,31.959,1.313,63.6,0,64.928a68.25,68.25,0,0,0-14.707,24.455c-4.552,13.655-5.695,34.214,14.707,54.617,31.959,31.959,1.313,63.6,0,64.928-.395.4-39.083,39.988,0,79.072,31.959,31.959,1.313,63.6,0,64.928a68.25,68.25,0,0,0-14.707,24.455c-4.552,13.655-5.695,34.214,14.707,54.617,31.959,31.959,1.313,63.6,0,64.928-.395.4-39.083,39.988,0,79.072,31.959,31.959,1.313,63.6,0,64.928a68.25,68.25,0,0,0-14.707,24.455c-4.552,13.655-5.695,34.214,14.707,54.617,31.959,31.959,1.313,63.6,0,64.928a68.261,68.261,0,0,0-14.707,24.455c-4.552,13.654-5.695,34.214,14.707,54.617,31.959,31.959,1.313,63.6,0,64.928-.395.395-39.083,39.988,0,79.072,31.959,31.959,1.313,63.6,0,64.928a68.261,68.261,0,0,0-14.707,24.455c-4.552,13.654-5.695,34.214,14.707,54.617,31.959,31.959,1.313,63.6,0,64.928-.395.395-39.083,39.988,0,79.072,31.959,31.959,1.313,63.6,0,64.928a68.261,68.261,0,0,0-14.707,24.455c-4.552,13.654-5.695,34.214,14.707,54.617,31.959,31.959,1.313,63.6,0,64.928-.395.395-39.083,39.988,0,79.072,31.959,31.959,1.313,63.605,0,64.928a68.261,68.261,0,0,0-14.707,24.455c-4.552,13.654-5.695,34.214,14.707,54.617,31.959,31.959,1.313,63.605,0,64.928-.395.395-39.083,39.988,0,79.072,31.959,31.959,1.313,63.605,0,64.928a68.261,68.261,0,0,0-14.707,24.455c-4.552,13.654-5.695,34.214,14.707,54.617h0c31.959,31.959,1.313,63.605,0,64.928a68.256,68.256,0,0,0-14.708,24.455c-4.552,13.654-5.695,34.213,14.708,54.617,31.959,31.959,1.313,63.605,0,64.928-.4.395-39.084,39.988,0,79.072,31.959,31.959,1.313,63.605,0,64.928a68.256,68.256,0,0,0-14.708,24.455c-4.552,13.654-5.695,34.213,14.708,54.617,31.959,31.959,1.313,63.605,0,64.928a68.256,68.256,0,0,0-14.708,24.455c-4.552,13.654-5.695,34.213,14.708,54.617,31.959,31.959,1.313,63.605,0,64.928-.4.395-39.084,39.988,0,79.072,31.959,31.959,1.313,63.605,0,64.928a68.256,68.256,0,0,0-14.708,24.455c-4.552,13.654-5.695,34.213,14.708,54.617,31.959,31.959,1.313,63.605,0,64.928a68.256,68.256,0,0,0-14.708,24.455c-4.552,13.654-5.695,34.213,14.708,54.617,31.959,31.959,1.313,63.605,0,64.928A68.256,68.256,0,0,0,13.775,3617.417Z" fill="blue"/>
    <path d="M21.065,3634.429H32.083A30.171,30.171,0,0,1,33.54,3624.4a46.181,46.181,0,0,1,9.823-16.622,80.517,80.517,0,0,0,17.454-29.365c5.355-16.427,6.669-41.078-17.485-65.232-10.3-10.3-13.5-21.019-9.792-32.781a46.181,46.181,0,0,1,9.823-16.622A79.191,79.191,0,0,0,60.7,3435.057c7.821-23.459,1.654-46.854-17.365-65.873-10.3-10.3-13.5-21.019-9.792-32.781a46.181,46.181,0,0,1,9.823-16.622,80.517,80.517,0,0,0,17.454-29.365c5.355-16.427,6.669-41.078-17.485-65.232-10.3-10.3-13.5-21.019-9.792-32.781a46.181,46.181,0,0,1,9.823-16.622A79.191,79.191,0,0,0,60.7,3147.057c7.821-23.459,1.654-46.854-17.365-65.874-10.3-10.3-13.5-21.018-9.792-32.779a46.18,46.18,0,0,1,9.823-16.623,80.517,80.517,0,0,0,17.454-29.365c5.355-16.427,6.669-41.078-17.485-65.233-10.3-10.3-13.5-21.018-9.792-32.779a46.18,46.18,0,0,1,9.823-16.623A79.191,79.191,0,0,0,60.7,2859.057c7.821-23.459,1.654-46.854-17.365-65.874-10.3-10.3-13.5-21.018-9.792-32.779a46.18,46.18,0,0,1,9.823-16.623,80.517,80.517,0,0,0,17.454-29.365c5.355-16.427,6.669-41.078-17.485-65.233-10.3-10.3-13.5-21.018-9.792-32.779a46.18,46.18,0,0,1,9.823-16.623A79.191,79.191,0,0,0,60.7,2571.057c7.821-23.459,1.654-46.854-17.365-65.873-10.294-10.3-13.5-21.015-9.793-32.775a46.159,46.159,0,0,1,9.824-16.627A79.2,79.2,0,0,0,60.7,2427.057c7.821-23.459,1.654-46.854-17.364-65.873-10.3-10.3-13.5-21.015-9.794-32.775a46.159,46.159,0,0,1,9.824-16.627,80.61,80.61,0,0,0,17.454-29.366c5.356-16.427,6.669-41.078-17.484-65.232-10.3-10.3-13.5-21.015-9.794-32.775a46.159,46.159,0,0,1,9.824-16.627A79.2,79.2,0,0,0,60.7,2139.057c7.821-23.459,1.654-46.854-17.364-65.873-10.3-10.3-13.5-21.015-9.794-32.775a46.159,46.159,0,0,1,9.824-16.627A79.2,79.2,0,0,0,60.7,1995.057c7.821-23.459,1.654-46.854-17.364-65.873-10.3-10.3-13.5-21.015-9.794-32.775a46.159,46.159,0,0,1,9.824-16.627,80.61,80.61,0,0,0,17.454-29.366c5.356-16.427,6.669-41.078-17.484-65.232-10.3-10.3-13.5-21.015-9.794-32.775a46.159,46.159,0,0,1,9.824-16.627A79.2,79.2,0,0,0,60.7,1707.058c7.821-23.46,1.654-46.855-17.364-65.874-10.3-10.3-13.5-21.015-9.794-32.775a46.159,46.159,0,0,1,9.824-16.627A79.2,79.2,0,0,0,60.7,1563.058c7.821-23.46,1.654-46.855-17.364-65.874-10.3-10.3-13.5-21.015-9.794-32.775a46.159,46.159,0,0,1,9.824-16.627A79.2,79.2,0,0,0,60.7,1419.058c7.821-23.46,1.654-46.855-17.364-65.874-10.3-10.3-13.5-21.015-9.794-32.775a46.159,46.159,0,0,1,9.824-16.627,80.61,80.61,0,0,0,17.454-29.366c5.356-16.426,6.669-41.078-17.484-65.232-10.3-10.3-13.5-21.029-9.787-32.8a46.182,46.182,0,0,1,9.82-16.609,79.036,79.036,0,0,0,17.331-28.72c7.821-23.461,1.654-46.855-17.364-65.874-10.3-10.3-13.5-21.029-9.787-32.8a46.182,46.182,0,0,1,9.82-16.609A79.036,79.036,0,0,0,60.7,987.058c7.821-23.461,1.654-46.855-17.364-65.874-10.3-10.3-13.5-21.029-9.787-32.8a46.182,46.182,0,0,1,9.82-16.609A79.036,79.036,0,0,0,60.7,843.058c7.821-23.461,1.654-46.855-17.364-65.874-10.3-10.3-13.5-21.029-9.787-32.8a46.182,46.182,0,0,1,9.82-16.609,80.529,80.529,0,0,0,17.451-29.362c5.356-16.427,6.669-41.078-17.484-65.232-10.3-10.3-13.5-21.029-9.787-32.8a46.182,46.182,0,0,1,9.82-16.609A79.036,79.036,0,0,0,60.7,555.058c7.821-23.461,1.654-46.855-17.364-65.874-10.3-10.3-13.5-21.029-9.787-32.8a46.182,46.182,0,0,1,9.82-16.609A79.036,79.036,0,0,0,60.7,411.058c7.821-23.461,1.654-46.855-17.364-65.874-10.3-10.3-13.5-21.029-9.787-32.8a46.182,46.182,0,0,1,9.82-16.609,80.529,80.529,0,0,0,17.451-29.362c5.356-16.427,6.669-41.078-17.484-65.232-10.3-10.3-13.5-21.029-9.787-32.8a46.182,46.182,0,0,1,9.82-16.609A79.036,79.036,0,0,0,60.7,123.058C68.518,99.6,62.351,76.2,43.333,57.184c-10.3-10.3-13.5-21.029-9.787-32.8a46.182,46.182,0,0,1,9.82-16.609L51.062,0H35.521l.033.034C34.241,1.358,3.6,33,35.554,64.962c20.4,20.4,19.26,40.962,14.708,54.617a68.244,68.244,0,0,1-14.708,24.455c-1.313,1.324-31.959,32.969,0,64.928,39.084,39.084.4,78.676,0,79.072-1.313,1.324-31.959,32.969,0,64.928,20.4,20.4,19.26,40.962,14.708,54.617a68.244,68.244,0,0,1-14.708,24.455c-1.313,1.324-31.959,32.969,0,64.928,20.4,20.4,19.26,40.962,14.708,54.617a68.244,68.244,0,0,1-14.708,24.455c-1.313,1.324-31.959,32.969,0,64.928,39.084,39.084.4,78.676,0,79.072-1.313,1.324-31.959,32.969,0,64.928,20.4,20.4,19.26,40.962,14.708,54.617a68.244,68.244,0,0,1-14.708,24.455c-1.313,1.324-31.959,32.969,0,64.928,20.4,20.4,19.26,40.962,14.708,54.617a68.244,68.244,0,0,1-14.708,24.455c-1.313,1.324-31.959,32.969,0,64.928,20.4,20.4,19.26,40.962,14.708,54.617a68.244,68.244,0,0,1-14.708,24.455c-1.313,1.324-31.959,32.969,0,64.928,39.084,39.084.4,78.677,0,79.072-1.313,1.323-31.959,32.969,0,64.928,20.4,20.4,19.26,40.963,14.708,54.617a68.256,68.256,0,0,1-14.708,24.455c-1.313,1.323-31.959,32.969,0,64.928,20.4,20.4,19.26,40.963,14.708,54.617a68.256,68.256,0,0,1-14.708,24.455c-1.313,1.323-31.959,32.969,0,64.928,20.4,20.4,19.26,40.963,14.708,54.617a68.256,68.256,0,0,1-14.708,24.455c-1.313,1.323-31.959,32.969,0,64.928,39.084,39.084.4,78.677,0,79.072-1.313,1.323-31.959,32.969,0,64.928,20.4,20.4,19.26,40.963,14.708,54.617a68.256,68.256,0,0,1-14.708,24.455c-1.313,1.323-31.959,32.969,0,64.928,20.4,20.4,19.26,40.963,14.708,54.617a68.256,68.256,0,0,1-14.708,24.455c-1.313,1.323-31.959,32.969,0,64.928,39.084,39.084.4,78.677,0,79.072-1.313,1.323-31.959,32.969,0,64.928,20.4,20.4,19.26,40.963,14.708,54.617a68.256,68.256,0,0,1-14.708,24.455c-1.313,1.323-31.959,32.969,0,64.928h0c20.4,20.4,19.259,40.963,14.707,54.617a68.272,68.272,0,0,1-14.707,24.455c-1.313,1.323-31.959,32.969,0,64.928,39.083,39.084.395,78.677,0,79.072-1.313,1.323-31.959,32.969,0,64.928,20.4,20.4,19.259,40.963,14.707,54.617a68.272,68.272,0,0,1-14.707,24.455c-1.313,1.323-31.959,32.969,0,64.928,39.083,39.084.395,78.677,0,79.072-1.313,1.323-31.959,32.969,0,64.928,20.4,20.4,19.259,40.962,14.707,54.617a68.272,68.272,0,0,1-14.707,24.455c-1.313,1.323-31.959,32.969,0,64.928,39.083,39.084.395,78.677,0,79.072-1.313,1.323-31.959,32.969,0,64.928,20.4,20.4,19.259,40.962,14.707,54.617a68.272,68.272,0,0,1-14.707,24.455c-1.313,1.323-31.959,32.969,0,64.928,39.083,39.084.395,78.677,0,79.072C34.675,3600.919,20.667,3615.382,21.065,3634.429Z" fill="#009"/>
    <path d="M20.674,3153.214A80.61,80.61,0,0,0,3.22,3182.58c-5.356,16.426-6.669,41.078,17.484,65.232,10.295,10.3,13.5,21.015,9.794,32.775a46.159,46.159,0,0,1-9.824,16.627A79.2,79.2,0,0,0,3.34,3325.938c-7.821,23.46-1.654,46.855,17.364,65.874,10.295,10.3,13.5,21.015,9.794,32.775a46.159,46.159,0,0,1-9.824,16.627A79.2,79.2,0,0,0,3.34,3469.938c-7.821,23.46-1.654,46.855,17.364,65.874,10.295,10.3,13.5,21.015,9.794,32.775a46.159,46.159,0,0,1-9.824,16.627A79.2,79.2,0,0,0,3.34,3613.938a62.219,62.219,0,0,0-3.292,20.491H11.037a51.873,51.873,0,0,1,2.738-17.012,68.256,68.256,0,0,1,14.708-24.455c1.313-1.323,31.959-32.969,0-64.928-20.4-20.4-19.26-40.963-14.708-54.617a68.256,68.256,0,0,1,14.708-24.455c1.313-1.323,31.959-32.969,0-64.928-20.4-20.4-19.26-40.963-14.708-54.617a68.256,68.256,0,0,1,14.708-24.455c1.313-1.323,31.959-32.969,0-64.928-39.084-39.084-.4-78.677,0-79.072,1.313-1.323,31.959-32.969,0-64.928-20.4-20.4-19.26-40.963-14.708-54.617a68.256,68.256,0,0,1,14.708-24.455c1.313-1.323,31.959-32.969,0-64.928-20.4-20.4-19.26-40.963-14.708-54.617a68.256,68.256,0,0,1,14.708-24.455c1.313-1.323,31.959-32.969,0-64.928-39.084-39.084-.4-78.677,0-79.072,1.313-1.323,31.959-32.969,0-64.928-20.4-20.4-19.26-40.963-14.708-54.617a68.256,68.256,0,0,1,14.708-24.455c1.313-1.323,31.959-32.969,0-64.928h0c-20.4-20.4-19.259-40.963-14.707-54.617a68.261,68.261,0,0,1,14.707-24.455c1.313-1.323,31.959-32.969,0-64.928-39.083-39.084-.395-78.677,0-79.072,1.313-1.323,31.959-32.969,0-64.928-20.4-20.4-19.259-40.963-14.707-54.617a68.261,68.261,0,0,1,14.707-24.455c1.313-1.323,31.959-32.969,0-64.928-39.083-39.084-.395-78.677,0-79.072,1.313-1.323,31.959-32.969,0-64.928-20.4-20.4-19.259-40.963-14.707-54.617a68.261,68.261,0,0,1,14.707-24.455c1.313-1.323,31.959-32.969,0-64.928-39.083-39.084-.395-78.677,0-79.072,1.313-1.323,31.959-32.969,0-64.928-20.4-20.4-19.259-40.963-14.707-54.617a68.261,68.261,0,0,1,14.707-24.455c1.313-1.323,31.959-32.969,0-64.928-39.083-39.084-.395-78.677,0-79.072,1.313-1.323,31.959-32.969,0-64.928-20.4-20.4-19.259-40.963-14.707-54.617a68.261,68.261,0,0,1,14.707-24.455c1.313-1.323,31.959-32.969,0-64.928-20.4-20.4-19.259-40.962-14.707-54.617a68.25,68.25,0,0,1,14.707-24.455c1.313-1.324,31.959-32.969,0-64.928-39.083-39.084-.395-78.676,0-79.072,1.313-1.324,31.959-32.969,0-64.928-20.4-20.4-19.259-40.962-14.707-54.617a68.25,68.25,0,0,1,14.707-24.455c1.313-1.324,31.959-32.969,0-64.928-39.083-39.084-.395-78.676,0-79.072,1.313-1.324,31.959-32.969,0-64.928-20.4-20.4-19.259-40.962-14.707-54.617a68.25,68.25,0,0,1,14.707-24.455c1.313-1.324,31.959-32.969,0-64.928-39.083-39.084-.395-78.676,0-79.072,1.313-1.324,31.959-32.969,0-64.928-20.4-20.4-19.259-40.962-14.707-54.617a68.25,68.25,0,0,1,14.707-24.455c1.313-1.324,31.959-32.969,0-64.928-39.083-39.084-.395-78.676,0-79.072,1.313-1.324,31.959-32.969,0-64.928-20.4-20.4-19.259-40.962-14.707-54.617A67.428,67.428,0,0,1,22.73,0H9.672A75.553,75.553,0,0,0,3.34,13.939C-4.48,37.4,1.686,60.793,20.705,79.812c10.3,10.3,13.5,21.025,9.788,32.791a46.176,46.176,0,0,1-9.821,16.614A80.612,80.612,0,0,0,3.22,158.58c-5.355,16.427-6.669,41.078,17.485,65.232,10.3,10.3,13.5,21.025,9.788,32.791a46.176,46.176,0,0,1-9.821,16.614A79.115,79.115,0,0,0,3.34,301.939c-7.82,23.46-1.654,46.854,17.365,65.873,10.3,10.3,13.5,21.025,9.788,32.791a46.176,46.176,0,0,1-9.821,16.614A80.612,80.612,0,0,0,3.22,446.58c-5.355,16.427-6.669,41.078,17.485,65.232,10.3,10.3,13.5,21.025,9.788,32.791a46.176,46.176,0,0,1-9.821,16.614A79.115,79.115,0,0,0,3.34,589.939c-7.82,23.46-1.654,46.854,17.365,65.873,10.3,10.3,13.5,21.025,9.788,32.791a46.176,46.176,0,0,1-9.821,16.614A80.612,80.612,0,0,0,3.22,734.58c-5.355,16.427-6.669,41.078,17.485,65.232,10.3,10.3,13.5,21.025,9.788,32.791a46.176,46.176,0,0,1-9.821,16.614A79.115,79.115,0,0,0,3.34,877.939c-7.82,23.46-1.654,46.854,17.365,65.873,10.3,10.3,13.5,21.025,9.788,32.791a46.176,46.176,0,0,1-9.821,16.614A80.612,80.612,0,0,0,3.22,1022.58c-5.355,16.427-6.669,41.078,17.485,65.232,10.3,10.3,13.5,21.025,9.788,32.791a46.176,46.176,0,0,1-9.821,16.614A79.115,79.115,0,0,0,3.34,1165.939c-7.82,23.46-1.654,46.854,17.365,65.873,10.3,10.3,13.5,21.019,9.792,32.78a46.18,46.18,0,0,1-9.823,16.623A79.191,79.191,0,0,0,3.34,1309.939c-7.821,23.459-1.654,46.854,17.365,65.873,10.3,10.3,13.5,21.019,9.792,32.78a46.18,46.18,0,0,1-9.823,16.623A80.517,80.517,0,0,0,3.22,1454.58c-5.355,16.427-6.669,41.078,17.485,65.232,10.3,10.3,13.5,21.019,9.792,32.78a46.18,46.18,0,0,1-9.823,16.623A79.191,79.191,0,0,0,3.34,1597.939c-7.821,23.459-1.654,46.854,17.365,65.873,10.3,10.3,13.5,21.019,9.792,32.78a46.18,46.18,0,0,1-9.823,16.623A80.517,80.517,0,0,0,3.22,1742.58c-5.355,16.427-6.669,41.078,17.485,65.232,10.3,10.3,13.5,21.019,9.792,32.78a46.18,46.18,0,0,1-9.823,16.623A79.191,79.191,0,0,0,3.34,1885.939c-7.821,23.459-1.654,46.854,17.365,65.873,10.3,10.3,13.5,21.019,9.792,32.78a46.18,46.18,0,0,1-9.823,16.623A80.517,80.517,0,0,0,3.22,2030.58c-5.355,16.427-6.669,41.078,17.485,65.232,10.3,10.3,13.5,21.019,9.792,32.78a46.18,46.18,0,0,1-9.823,16.623A79.191,79.191,0,0,0,3.34,2173.939c-7.821,23.459-1.654,46.854,17.365,65.873,10.3,10.3,13.5,21.019,9.792,32.78a46.18,46.18,0,0,1-9.823,16.623A80.517,80.517,0,0,0,3.22,2318.58c-5.355,16.427-6.669,41.078,17.485,65.232,10.3,10.3,13.5,21.019,9.792,32.78a46.18,46.18,0,0,1-9.823,16.623A79.191,79.191,0,0,0,3.34,2461.939c-7.821,23.459-1.654,46.854,17.365,65.873h0c10.294,10.3,13.5,21.015,9.793,32.775a46.159,46.159,0,0,1-9.824,16.627A79.2,79.2,0,0,0,3.34,2605.939c-7.821,23.459-1.654,46.854,17.364,65.873,10.295,10.3,13.5,21.015,9.794,32.775a46.159,46.159,0,0,1-9.824,16.627A80.61,80.61,0,0,0,3.22,2750.58c-5.356,16.426-6.669,41.078,17.484,65.232,10.295,10.3,13.5,21.015,9.794,32.775a46.159,46.159,0,0,1-9.824,16.627A79.2,79.2,0,0,0,3.34,2893.939c-7.821,23.459-1.654,46.854,17.364,65.873,10.295,10.3,13.5,21.015,9.794,32.775a46.159,46.159,0,0,1-9.824,16.627A79.2,79.2,0,0,0,3.34,3037.939c-7.821,23.459-1.654,46.854,17.364,65.873,10.295,10.3,13.5,21.015,9.794,32.775A46.159,46.159,0,0,1,20.674,3153.214Z" fill="#009"/>
  </g>
</svg>
