<svg xmlns="http://www.w3.org/2000/svg" width="15.439" height="15.229" viewBox="0 0 15.439 15.229">
  <path d="M0,7.515A7.324,7.324,0,0,1,.6,4.556,6.811,6.811,0,0,1,2.332,2.171,8.231,8.231,0,0,1,5.107.58,11.066,11.066,0,0,1,8.817,0a14.178,14.178,0,0,1,3.33.366,10.6,10.6,0,0,1,2.817,1.116l-1.387,2.28a4.86,4.86,0,0,0-.9-.456A8.218,8.218,0,0,0,11.6,2.969a10.81,10.81,0,0,0-1.188-.214A9.956,9.956,0,0,0,9.2,2.679a8.547,8.547,0,0,0-2.575.357,5.572,5.572,0,0,0-1.905,1,4.257,4.257,0,0,0-1.178,1.53,4.664,4.664,0,0,0-.4,1.952,4.851,4.851,0,0,0,.418,2.024A4.5,4.5,0,0,0,4.765,11.13,5.743,5.743,0,0,0,6.7,12.175a8.3,8.3,0,0,0,2.589.375,8.991,8.991,0,0,0,1.3-.1,10.3,10.3,0,0,0,1.249-.261,9.963,9.963,0,0,0,1.164-.4,9.309,9.309,0,0,0,1.045-.509l1.387,2.281a10.275,10.275,0,0,1-2.812,1.221,12.687,12.687,0,0,1-3.392.441,12.4,12.4,0,0,1-4.019-.593A8.282,8.282,0,0,1,2.328,13,6.7,6.7,0,0,1,.584,10.55,7.863,7.863,0,0,1,0,7.515Z" fill="blue"/>
</svg>
